<svg version="1.1" viewBox="0 0 106.6 74.3" xmlns="http://www.w3.org/2000/svg">
 <style type="text/css">.st0{fill:#099CEC;}
	.st1{fill:#066DA5;}
	.st2{fill:#FFFFFF;}
	.st3{opacity:0.6;fill:#101E26;enable-background:new    ;}
	.st4{opacity:0.1;fill:#101E26;enable-background:new    ;}</style>
 <g fill="#099cec">
  <polygon id="Rectangle" class="st0" transform="translate(-55.61 -39)" points="75 75 64 75 64 65 75 65"/>
  <polygon id="Rectangle_1_" class="st0" transform="translate(-55.61 -39)" points="88 75 77 75 77 65 88 65"/>
  <polygon id="Rectangle_2_" class="st0" transform="translate(-55.61 -39)" points="101 75 90 75 90 65 101 65"/>
  <polygon id="Rectangle_3_" class="st0" transform="translate(-55.61 -39)" points="114 75 103 75 103 65 114 65"/>
  <polygon id="Rectangle_4_" class="st0" transform="translate(-55.61 -39)" points="127 75 116 75 116 65 127 65"/>
  <polygon id="Rectangle_5_" class="st0" transform="translate(-55.61 -39)" points="88 63 77 63 77 53 88 53"/>
  <polygon id="Rectangle_6_" class="st0" transform="translate(-55.61 -39)" points="101 63 90 63 90 53 101 53"/>
  <polygon id="Rectangle_7_" class="st0" transform="translate(-55.61 -39)" points="114 63 103 63 103 53 114 53"/>
  <polygon id="Rectangle_8_" class="st0" transform="translate(-55.61 -39)" points="114 51 103 51 103 41 114 41"/>
  <path id="Shape" class="st0" d="m91.29 28c-0.2-4.3-2.4-7.9-6.5-11.1l-1.5-1-1 1.5c-2 3-2.8 7-2.5 10.6 0.2 2.2 1 4.7 2.5 6.5-1.1 0.9-4.7 2.6-9.5 2.5h-71.5c-1.3 7.6 0.9 36.2 34 36.2 24.6 0 44.8-11 54-34.2 3 0 11.1 0.5 15-7 0.1-0.1 1-2 1-2l-1.5-1c-2.2-1.5-8.2-2.1-12.5-1z"/>
 </g>
 <path class="st2" d="m28.09 59.8c-8.2 2.8-16.9 3.2-18.8 3.2 6.1 5.1 17 14.7 35 9.2-3.3-0.9-11-3.9-16.2-12.4z" fill="#fff"/>
 <path id="Shape_1_" class="st1" d="m27.19 58c-3.9 2.2-8.5 3.5-13.3 3.5-2.4 0-4.8-0.3-7.1-0.9l1.4 2.4c1.8 0.4 3.7 0.5 5.6 0.5 5.2 0 10.1-1.4 14.3-3.8-0.3-0.5-0.6-1.1-0.9-1.7z" fill="#066da5"/>
 <circle id="Oval" class="st2" cx="34.79" cy="53.2" r="3.5" fill="#fff"/>
 <path class="st3" d="m36.79 53.1c-0.1 0.1-0.3 0.1-0.5 0.1-0.6 0-1-0.5-1-1 0-0.3 0.2-0.6 0.4-0.8-0.3-0.1-0.6-0.2-0.9-0.2-1.1 0-2 0.9-2 2s0.9 2 2 2 2-0.9 2-2v-0.1z" enable-background="new" fill="#101e26" opacity=".6"/>
 <path id="Shape_2_" class="st4" d="m103.9 28.9c-2.2-1.5-8.4-2.2-12.5-1l-0.9 1.3c-13.4 27.7-30.2 39.5-53.1 40-25-0.1-31.3-13.3-33-31.2h-4c-0.5 7.6 1.4 35.3 34.8 35.3 24.6 0 44.8-11 54.2-34.2 3.1 0.1 11.6 0.1 15.3-7.6l0.8-1.6z" enable-background="new" fill="#101e26" opacity=".1"/>
 <g fill="#066da5">
  <path id="Shape_3_" class="st1" d="m104.4 28.1 2.2 1.5-0.4 0.8c-0.1 0.2-0.1 0.2-0.2 0.3-0.1 0.2-0.2 0.5-0.3 0.7-0.3 0.6-0.4 0.9-0.5 1.1-1.7 3.3-4.3 5.4-7.5 6.6-2.4 0.9-4.6 1.1-7.7 1-9.2 22.3-28.9 34.2-54.7 34.2-15.1 0-25.2-5.8-30.8-15.8-2.1-3.9-3.4-8.2-4.1-12.5-0.5-3.5-0.5-6.8-0.1-9.2l0.1-0.8h72.3c3.2 0.1 6.2-0.8 8-1.8-1.1-1.7-1.8-3.9-2.1-6.2-0.3-4 0.6-8.1 2.7-11.2l1.6-2.3 2.5 1.5c4 3.1 6.2 6.6 6.8 10.7 4.3-0.8 9.8-0.2 12.2 1.4zm-1.1 1.7c-2.1-1.4-7.8-1.9-11.7-0.9l-1.2 0.3-0.1-1.2c-0.2-3.9-2.2-7.3-6.1-10.3l-0.6-0.4-0.4 0.7c-1.8 2.7-2.6 6.4-2.3 9.9 0.2 2.3 1 4.5 2.3 6l0.7 0.8-0.8 0.6c-2 1.5-5.9 2.8-10.1 2.7h-70.8c-0.2 2.1-0.2 4.8 0.2 7.7 0.6 4.1 1.9 8.2 3.9 11.8 5.2 9.3 14.6 14.8 29 14.8 25.2 0 44.3-11.7 53.1-33.6l0.3-0.6h0.7 0.5c3 0.1 5-0.1 7.1-0.9 2.8-1 4.9-2.8 6.4-5.6 0.1-0.2 0.1-0.2 0.2-0.3l0.3-0.6c0-0.1 0.1-0.2 0.1-0.2z"/>
  <path id="Rectangle-38-Copy" class="st1" d="m8.389 26v10h11v-10zm-2-2h15v14h-15z"/>
  <rect class="st1" x="10.39" y="28" width="1" height="6"/>
  <rect id="Rectangle-5_1_" class="st1" x="13.39" y="28" width="1" height="6"/>
  <rect id="Rectangle-5_2_" class="st1" x="16.39" y="28" width="1" height="6"/>
  <path id="Rectangle-38-Copy_1_" class="st1" d="m21.39 26v10h11v-10zm-2-2h15v14h-15z"/>
  <rect id="Rectangle-5_3_" class="st1" x="23.39" y="28" width="1" height="6"/>
  <rect id="Rectangle-5_4_" class="st1" x="26.39" y="28" width="1" height="6"/>
  <rect id="Rectangle-5_5_" class="st1" x="29.39" y="28" width="1" height="6"/>
  <path id="Rectangle-38-Copy_2_" class="st1" d="m34.39 26v10h11v-10zm-2-2h15v14h-15z"/>
  <rect id="Rectangle-5_6_" class="st1" x="36.39" y="28" width="1" height="6"/>
  <rect id="Rectangle-5_7_" class="st1" x="39.39" y="28" width="1" height="6"/>
  <rect id="Rectangle-5_8_" class="st1" x="42.39" y="28" width="1" height="6"/>
  <path id="Rectangle-38-Copy_3_" class="st1" d="m47.39 26v10h11v-10zm-2-2h15v14h-15z"/>
  <rect id="Rectangle-5_9_" class="st1" x="49.39" y="28" width="1" height="6"/>
  <rect id="Rectangle-5_10_" class="st1" x="52.39" y="28" width="1" height="6"/>
  <rect id="Rectangle-5_11_" class="st1" x="55.39" y="28" width="1" height="6"/>
  <path id="Rectangle-38-Copy_4_" class="st1" d="m60.39 26v10h11v-10zm-2-2h15v14h-15z"/>
  <rect id="Rectangle-5_12_" class="st1" x="62.39" y="28" width="1" height="6"/>
  <rect id="Rectangle-5_13_" class="st1" x="65.39" y="28" width="1" height="6"/>
  <rect id="Rectangle-5_14_" class="st1" x="68.39" y="28" width="1" height="6"/>
  <path id="Rectangle-38-Copy_5_" class="st1" d="m21.39 14v10h11v-10zm-2-2h15v14h-15z"/>
  <rect id="Rectangle-5_15_" class="st1" x="26.39" y="16" width="1" height="6"/>
  <rect id="Rectangle-5_16_" class="st1" x="29.39" y="16" width="1" height="6"/>
  <path id="Rectangle-38-Copy_6_" class="st1" d="m34.39 14v10h11v-10zm-2-2h15v14h-15z"/>
  <rect id="Rectangle-5_17_" class="st1" x="36.39" y="16" width="1" height="6"/>
  <rect id="Rectangle-5_18_" class="st1" x="39.39" y="16" width="1" height="6"/>
  <rect id="Rectangle-5_19_" class="st1" x="42.39" y="16" width="1" height="6"/>
  <path id="Rectangle-38-Copy_7_" class="st1" d="m47.39 14v10h11v-10zm-2-2h15v14h-15z"/>
  <rect id="Rectangle-5_20_" class="st1" x="49.39" y="16" width="1" height="6"/>
  <rect id="Rectangle-5_21_" class="st1" x="52.39" y="16" width="1" height="6"/>
  <rect id="Rectangle-5_22_" class="st1" x="55.39" y="16" width="1" height="6"/>
  <path id="Rectangle-38-Copy_8_" class="st1" d="m47.39 2v10h11v-10zm-2-2h15v14h-15z"/>
  <rect id="Rectangle-5_23_" class="st1" x="52.39" y="4" width="1" height="6"/>
  <rect id="Rectangle-5_24_" class="st1" x="49.39" y="4" width="1" height="6"/>
  <rect id="Rectangle-5_25_" class="st1" x="55.39" y="4" width="1" height="6"/>
  <rect id="Rectangle-5_26_" class="st1" x="23.39" y="16" width="1" height="6"/>
 </g>
</svg>
