<svg version="1.0" viewBox="0 0 378.1 321.3" xmlns="http://www.w3.org/2000/svg">
 <g transform="translate(-382 -279.5)">
  <path d="m390.1 595.6c-2.821-3.003-2.765-6.782 0.1401-9.511 3.003-2.821 6.782-2.765 9.511 0.1401 2.821 3.003 2.765 6.782-0.1401 9.511-3.003 2.821-6.782 2.765-9.511-0.1401zm20.59-12.25c-7.534-4.088-7.412-15.98 0.2047-19.92 5.741-2.969 12.71-0.9692 15.52 4.45 5.334 10.32-5.525 21-15.72 15.47zm29.24-18.68c-9.87-5.276-13.8-17.3-8.752-26.75 5.276-9.87 17.3-13.8 26.75-8.752 9.87 5.276 13.8 17.3 8.752 26.75-5.276 9.87-17.3 13.8-26.75 8.752zm149.1-18.3c-12.88-2.795-21.11-6.208-30.96-12.85l-5.345-3.602-9.155 4.518c-5.035 2.485-12.3 5.176-16.15 5.979-36.02 7.516-71.3-14.34-80.5-49.88-1.252-4.837-2.272-7.013-3.174-6.771-0.7308 0.1957-4.929 0.5889-9.329 0.8737-14.57 0.943-26.44-3.747-36.69-14.49-6.105-6.4-8.757-10.94-11.2-19.17-3.282-11.07-1.267-26.63 4.716-36.43 3.788-6.204 12.3-14.14 18.51-17.25l5.755-2.888 1.249-6.5c4.728-24.59 27.01-43 52.07-43h5.808l0.6354-6.079c2.49-23.82 20.48-45.61 44.65-54.06 5.523-1.932 8.53-2.274 20-2.274s14.48 0.342 20 2.274c18.26 6.387 32.79 19.81 40.13 37.06 1.572 3.696 3.362 6.49 4.085 6.375 0.7076-0.1125 3.987-1.184 7.287-2.382 8.169-2.965 22.66-3.665 31.73-1.533 17.52 4.119 33.12 16.39 40.49 31.84 2.306 4.839 3.12 5.734 4.78 5.253 4.464-1.295 18.37-1.63 24-0.5784 9.65 1.804 19.76 7.201 27.51 14.69 22.32 21.55 22.87 55.19 1.262 77.57-11.45 11.86-25.83 17.48-42.41 16.58l-8.634-0.4705-1.2 7.441c-6.686 41.45-42.12 71.47-84.03 71.2-5.225-0.03418-12.37-0.6857-15.89-1.448z" fill="#fff" stroke="#000" stroke-width="6"/>
 </g>
</svg>
